# xmcd
#
# Track frame offsets: 
#        150
#        26302
#        59985
#        91830
#        100767
#        134107
#        160882
#        187207
#        200175
#        215392
#
# Disc length: 3477 seconds
#
# Revision: 3
# Processed by: cddbd v1.5.2PL0 Copyright (c) Steve Scherf et al.
# Submitted via: ExactAudioCopy v1.0b3
#
DISCID=990d930a
DTITLE=Synthesis - Swinging Macedonia
DYEAR=2000
DGENRE=Macedonian Ethno
TTITLE0=Mome stoe
TTITLE1=Vo nase selo
TTITLE2=Postupano
TTITLE3=Sto e ludo
TTITLE4=Pomnis li
TTITLE5=Me fatije
TTITLE6=Mori mome
TTITLE7=Mace
TTITLE8=Ezgija
TTITLE9=Imala majka
EXTD=SJF Records 2000\n\ndd Synthesis:\nGoce Dimovski - kaval, gajda, 
EXTD=zurla\nVane Jovcev - piano\nMarjan Jovanovski - tambura\nGoce Uzu
EXTD=nski - tapan, tarabuka\nRadoslav Shutevski - percussion\nAneta Sh
EXTD=ulankovska - vocals\nBiljana Ristovska - vocals\nMirjana Josheska
EXTD=vocals YEAR: 2000
EXTT0=
EXTT1=
EXTT2=
EXTT3=
EXTT4=
EXTT5=
EXTT6=
EXTT7=
EXTT8=
EXTT9=
PLAYORDER=
